<svg width="181" height="18" viewBox="0 0 181 18" fill="none" xmlns="http://www.w3.org/2000/svg">
<path d="M33.756 13.144C33.084 13.144 32.44 13.056 31.824 12.88C31.208 12.696 30.712 12.46 30.336 12.172L30.996 10.708C31.356 10.964 31.78 11.176 32.268 11.344C32.764 11.504 33.264 11.584 33.768 11.584C34.152 11.584 34.46 11.548 34.692 11.476C34.932 11.396 35.108 11.288 35.22 11.152C35.332 11.016 35.388 10.86 35.388 10.684C35.388 10.46 35.3 10.284 35.124 10.156C34.948 10.02 34.716 9.912 34.428 9.832C34.14 9.744 33.82 9.664 33.468 9.592C33.124 9.512 32.776 9.416 32.424 9.304C32.08 9.192 31.764 9.048 31.476 8.872C31.188 8.696 30.952 8.464 30.768 8.176C30.592 7.888 30.504 7.52 30.504 7.072C30.504 6.592 30.632 6.156 30.888 5.764C31.152 5.364 31.544 5.048 32.064 4.816C32.592 4.576 33.252 4.456 34.044 4.456C34.572 4.456 35.092 4.52 35.604 4.648C36.116 4.768 36.568 4.952 36.96 5.2L36.36 6.676C35.968 6.452 35.576 6.288 35.184 6.184C34.792 6.072 34.408 6.016 34.032 6.016C33.656 6.016 33.348 6.06 33.108 6.148C32.868 6.236 32.696 6.352 32.592 6.496C32.488 6.632 32.436 6.792 32.436 6.976C32.436 7.192 32.524 7.368 32.7 7.504C32.876 7.632 33.108 7.736 33.396 7.816C33.684 7.896 34 7.976 34.344 8.056C34.696 8.136 35.044 8.228 35.388 8.332C35.74 8.436 36.06 8.576 36.348 8.752C36.636 8.928 36.868 9.16 37.044 9.448C37.228 9.736 37.32 10.1 37.32 10.54C37.32 11.012 37.188 11.444 36.924 11.836C36.66 12.228 36.264 12.544 35.736 12.784C35.216 13.024 34.556 13.144 33.756 13.144ZM47.8068 4.6H49.7508V13H47.8068V4.6ZM43.9908 13H42.0468V4.6H43.9908V13ZM47.9508 9.556H43.8468V7.912H47.9508V9.556ZM54.0326 13L57.7766 4.6H59.6966L63.4526 13H61.4126L58.3406 5.584H59.1086L56.0246 13H54.0326ZM55.9046 11.2L56.4206 9.724H60.7406L61.2686 11.2H55.9046ZM67.7226 13V4.6H71.5386C72.4506 4.6 73.2546 4.776 73.9506 5.128C74.6466 5.472 75.1906 5.956 75.5826 6.58C75.9746 7.204 76.1706 7.944 76.1706 8.8C76.1706 9.648 75.9746 10.388 75.5826 11.02C75.1906 11.644 74.6466 12.132 73.9506 12.484C73.2546 12.828 72.4506 13 71.5386 13H67.7226ZM69.6666 11.404H71.4426C72.0026 11.404 72.4866 11.3 72.8946 11.092C73.3106 10.876 73.6306 10.572 73.8546 10.18C74.0866 9.788 74.2026 9.328 74.2026 8.8C74.2026 8.264 74.0866 7.804 73.8546 7.42C73.6306 7.028 73.3106 6.728 72.8946 6.52C72.4866 6.304 72.0026 6.196 71.4426 6.196H69.6666V11.404ZM83.7951 13.144C83.1231 13.144 82.4791 13.056 81.8631 12.88C81.2471 12.696 80.7511 12.46 80.3751 12.172L81.0351 10.708C81.3951 10.964 81.8191 11.176 82.3071 11.344C82.8031 11.504 83.3031 11.584 83.8071 11.584C84.1911 11.584 84.4991 11.548 84.7311 11.476C84.9711 11.396 85.1471 11.288 85.2591 11.152C85.3711 11.016 85.4271 10.86 85.4271 10.684C85.4271 10.46 85.3391 10.284 85.1631 10.156C84.9871 10.02 84.7551 9.912 84.4671 9.832C84.1791 9.744 83.8591 9.664 83.5071 9.592C83.1631 9.512 82.8151 9.416 82.4631 9.304C82.1191 9.192 81.8031 9.048 81.5151 8.872C81.2271 8.696 80.9911 8.464 80.8071 8.176C80.6311 7.888 80.5431 7.52 80.5431 7.072C80.5431 6.592 80.6711 6.156 80.9271 5.764C81.1911 5.364 81.5831 5.048 82.1031 4.816C82.6311 4.576 83.2911 4.456 84.0831 4.456C84.6111 4.456 85.1311 4.52 85.6431 4.648C86.1551 4.768 86.6071 4.952 86.9991 5.2L86.3991 6.676C86.0071 6.452 85.6151 6.288 85.2231 6.184C84.8311 6.072 84.4471 6.016 84.0711 6.016C83.6951 6.016 83.3871 6.06 83.1471 6.148C82.9071 6.236 82.7351 6.352 82.6311 6.496C82.5271 6.632 82.4751 6.792 82.4751 6.976C82.4751 7.192 82.5631 7.368 82.7391 7.504C82.9151 7.632 83.1471 7.736 83.4351 7.816C83.7231 7.896 84.0391 7.976 84.3831 8.056C84.7351 8.136 85.0831 8.228 85.4271 8.332C85.7791 8.436 86.0991 8.576 86.3871 8.752C86.6751 8.928 86.9071 9.16 87.0831 9.448C87.2671 9.736 87.3591 10.1 87.3591 10.54C87.3591 11.012 87.2271 11.444 86.9631 11.836C86.6991 12.228 86.3031 12.544 85.7751 12.784C85.2551 13.024 84.5951 13.144 83.7951 13.144ZM96.1658 13.144C95.5018 13.144 94.8858 13.036 94.3178 12.82C93.7578 12.604 93.2698 12.3 92.8538 11.908C92.4458 11.516 92.1258 11.056 91.8938 10.528C91.6698 10 91.5578 9.424 91.5578 8.8C91.5578 8.176 91.6698 7.6 91.8938 7.072C92.1258 6.544 92.4498 6.084 92.8658 5.692C93.2818 5.3 93.7698 4.996 94.3298 4.78C94.8898 4.564 95.4978 4.456 96.1538 4.456C96.8178 4.456 97.4258 4.564 97.9778 4.78C98.5378 4.996 99.0218 5.3 99.4298 5.692C99.8458 6.084 100.17 6.544 100.402 7.072C100.634 7.592 100.75 8.168 100.75 8.8C100.75 9.424 100.634 10.004 100.402 10.54C100.17 11.068 99.8458 11.528 99.4298 11.92C99.0218 12.304 98.5378 12.604 97.9778 12.82C97.4258 13.036 96.8218 13.144 96.1658 13.144ZM96.1538 11.488C96.5298 11.488 96.8738 11.424 97.1858 11.296C97.5058 11.168 97.7858 10.984 98.0258 10.744C98.2658 10.504 98.4498 10.22 98.5778 9.892C98.7138 9.564 98.7818 9.2 98.7818 8.8C98.7818 8.4 98.7138 8.036 98.5778 7.708C98.4498 7.38 98.2658 7.096 98.0258 6.856C97.7938 6.616 97.5178 6.432 97.1978 6.304C96.8778 6.176 96.5298 6.112 96.1538 6.112C95.7778 6.112 95.4298 6.176 95.1098 6.304C94.7978 6.432 94.5218 6.616 94.2818 6.856C94.0418 7.096 93.8538 7.38 93.7178 7.708C93.5898 8.036 93.5258 8.4 93.5258 8.8C93.5258 9.192 93.5898 9.556 93.7178 9.892C93.8538 10.22 94.0378 10.504 94.2698 10.744C94.5098 10.984 94.7898 11.168 95.1098 11.296C95.4298 11.424 95.7778 11.488 96.1538 11.488ZM105.609 13V4.6H107.553V11.416H111.765V13H105.609ZM119.982 13.144C118.79 13.144 117.858 12.812 117.186 12.148C116.514 11.484 116.178 10.536 116.178 9.304V4.6H118.122V9.232C118.122 10.032 118.286 10.608 118.614 10.96C118.942 11.312 119.402 11.488 119.994 11.488C120.586 11.488 121.046 11.312 121.374 10.96C121.702 10.608 121.866 10.032 121.866 9.232V4.6H123.786V9.304C123.786 10.536 123.45 11.484 122.778 12.148C122.106 12.812 121.174 13.144 119.982 13.144ZM130.845 13V6.184H128.157V4.6H135.477V6.184H132.789V13H130.845ZM139.922 13V4.6H141.866V13H139.922ZM151.338 13.144C150.674 13.144 150.058 13.036 149.49 12.82C148.93 12.604 148.442 12.3 148.026 11.908C147.618 11.516 147.298 11.056 147.066 10.528C146.842 10 146.73 9.424 146.73 8.8C146.73 8.176 146.842 7.6 147.066 7.072C147.298 6.544 147.622 6.084 148.038 5.692C148.454 5.3 148.942 4.996 149.502 4.78C150.062 4.564 150.67 4.456 151.326 4.456C151.99 4.456 152.598 4.564 153.15 4.78C153.71 4.996 154.194 5.3 154.602 5.692C155.018 6.084 155.342 6.544 155.574 7.072C155.806 7.592 155.922 8.168 155.922 8.8C155.922 9.424 155.806 10.004 155.574 10.54C155.342 11.068 155.018 11.528 154.602 11.92C154.194 12.304 153.71 12.604 153.15 12.82C152.598 13.036 151.994 13.144 151.338 13.144ZM151.326 11.488C151.702 11.488 152.046 11.424 152.358 11.296C152.678 11.168 152.958 10.984 153.198 10.744C153.438 10.504 153.622 10.22 153.75 9.892C153.886 9.564 153.954 9.2 153.954 8.8C153.954 8.4 153.886 8.036 153.75 7.708C153.622 7.38 153.438 7.096 153.198 6.856C152.966 6.616 152.69 6.432 152.37 6.304C152.05 6.176 151.702 6.112 151.326 6.112C150.95 6.112 150.602 6.176 150.282 6.304C149.97 6.432 149.694 6.616 149.454 6.856C149.214 7.096 149.026 7.38 148.89 7.708C148.762 8.036 148.698 8.4 148.698 8.8C148.698 9.192 148.762 9.556 148.89 9.892C149.026 10.22 149.21 10.504 149.442 10.744C149.682 10.984 149.962 11.168 150.282 11.296C150.602 11.424 150.95 11.488 151.326 11.488ZM160.781 13V4.6H162.389L167.345 10.648H166.565V4.6H168.485V13H166.889L161.921 6.952H162.701V13H160.781ZM176.631 13.144C175.959 13.144 175.315 13.056 174.699 12.88C174.083 12.696 173.587 12.46 173.211 12.172L173.871 10.708C174.231 10.964 174.655 11.176 175.143 11.344C175.639 11.504 176.139 11.584 176.643 11.584C177.027 11.584 177.335 11.548 177.567 11.476C177.807 11.396 177.983 11.288 178.095 11.152C178.207 11.016 178.263 10.86 178.263 10.684C178.263 10.46 178.175 10.284 177.999 10.156C177.823 10.02 177.591 9.912 177.303 9.832C177.015 9.744 176.695 9.664 176.343 9.592C175.999 9.512 175.651 9.416 175.299 9.304C174.955 9.192 174.639 9.048 174.351 8.872C174.063 8.696 173.827 8.464 173.643 8.176C173.467 7.888 173.379 7.52 173.379 7.072C173.379 6.592 173.507 6.156 173.763 5.764C174.027 5.364 174.419 5.048 174.939 4.816C175.467 4.576 176.127 4.456 176.919 4.456C177.447 4.456 177.967 4.52 178.479 4.648C178.991 4.768 179.443 4.952 179.835 5.2L179.235 6.676C178.843 6.452 178.451 6.288 178.059 6.184C177.667 6.072 177.283 6.016 176.907 6.016C176.531 6.016 176.223 6.06 175.983 6.148C175.743 6.236 175.571 6.352 175.467 6.496C175.363 6.632 175.311 6.792 175.311 6.976C175.311 7.192 175.399 7.368 175.575 7.504C175.751 7.632 175.983 7.736 176.271 7.816C176.559 7.896 176.875 7.976 177.219 8.056C177.571 8.136 177.919 8.228 178.263 8.332C178.615 8.436 178.935 8.576 179.223 8.752C179.511 8.928 179.743 9.16 179.919 9.448C180.103 9.736 180.195 10.1 180.195 10.54C180.195 11.012 180.063 11.444 179.799 11.836C179.535 12.228 179.139 12.544 178.611 12.784C178.091 13.024 177.431 13.144 176.631 13.144Z" fill="white"/>
<path d="M10.2889 1.26464e-05L17 7.20001L13.1111 7.20001L7.24444 0.82287H9.53333L3.57778 7.20001H-2.81422e-07L6.73333 1.26464e-05H10.2889Z" fill="white"/>
<path d="M10.2889 5.40001L17 12.6H13.1111L7.24444 6.22286H9.53333L3.57778 12.6H-2.81422e-07L6.73333 5.40001H10.2889Z" fill="white"/>
<path d="M10.2889 10.8L17 18H13.1111L7.24444 11.6229H9.53333L3.57778 18L-2.81422e-07 18L6.73333 10.8H10.2889Z" fill="white"/>
</svg>
