<svg width="623" height="136" viewBox="0 0 623 136" fill="none" xmlns="http://www.w3.org/2000/svg">
<path d="M132.952 129.048C125.741 129.048 119.981 126.872 115.672 122.52C111.405 118.168 109.272 112.451 109.272 105.368V100.248H126.552V105.368C126.552 107.288 127.107 108.845 128.216 110.04C129.325 111.192 130.904 111.768 132.952 111.768C135 111.768 136.579 111.192 137.688 110.04C138.797 108.845 139.352 107.288 139.352 105.368V95.512C139.352 94.4027 139.309 93.528 139.224 92.888C139.139 92.248 138.904 91.736 138.52 91.352C138.179 90.968 137.56 90.6267 136.664 90.328C135.811 89.9867 134.573 89.5813 132.952 89.112C127.021 87.32 122.435 85.8053 119.192 84.568C115.949 83.288 113.624 81.9227 112.216 80.472C110.808 79.0213 109.955 77.144 109.656 74.84C109.4 72.4933 109.272 69.3573 109.272 65.432V52.632C109.272 45.5067 111.405 39.7893 115.672 35.48C119.981 31.128 125.741 28.952 132.952 28.952C140.205 28.952 145.965 31.128 150.232 35.48C154.499 39.7893 156.632 45.5067 156.632 52.632V57.752H139.352V52.632C139.352 50.712 138.797 49.176 137.688 48.024C136.579 46.8293 135 46.232 132.952 46.232C130.904 46.232 129.325 46.8293 128.216 48.024C127.107 49.176 126.552 50.712 126.552 52.632V65.432C126.552 66.5413 126.595 67.416 126.68 68.056C126.765 68.696 126.979 69.208 127.32 69.592C127.704 69.976 128.344 70.3387 129.24 70.68C130.136 70.9787 131.373 71.3627 132.952 71.832C138.883 73.624 143.469 75.16 146.712 76.44C149.955 77.6773 152.28 79.0213 153.688 80.472C155.096 81.9227 155.928 83.8213 156.184 86.168C156.483 88.472 156.632 91.5867 156.632 95.512V105.368C156.632 112.451 154.499 118.168 150.232 122.52C145.965 126.872 140.205 129.048 132.952 129.048ZM385.899 31V48.28H363.499V67.48H382.443V84.76H363.499V109.72H385.899V127H346.219V31H385.899Z" fill="#1A88FF"/>
<path d="M170.052 127V31H186.052V67.352L183.236 63.64C184.601 60.8667 186.5 58.7333 188.932 57.24C191.364 55.704 194.372 54.936 197.956 54.936C200.729 54.936 203.396 55.4907 205.956 56.6C208.559 57.7093 210.692 59.6293 212.356 62.36C214.02 65.048 214.852 68.76 214.852 73.496V127H198.852V77.336C198.852 75.416 198.297 73.88 197.188 72.728C196.079 71.5333 194.5 70.936 192.452 70.936C190.404 70.936 188.825 71.5333 187.716 72.728C186.607 73.88 186.052 75.416 186.052 77.336V127H170.052ZM243.251 128.664C237.491 128.664 233.096 126.872 230.067 123.288C227.08 119.661 225.587 115.075 225.587 109.528C225.587 106.328 226.056 103.619 226.995 101.4C227.934 99.1813 229.171 97.3253 230.707 95.832C232.286 94.296 234.035 92.9947 235.955 91.928C238.131 90.6907 240.371 89.6667 242.675 88.856C244.979 88.0027 247.112 87.1707 249.075 86.36C251.038 85.5067 252.616 84.4827 253.811 83.288C255.048 82.0933 255.667 80.536 255.667 78.616V77.336C255.667 75.416 255.112 73.88 254.003 72.728C252.894 71.5333 251.315 70.936 249.267 70.936C247.219 70.936 245.64 71.5333 244.531 72.728C243.422 73.88 242.867 75.416 242.867 77.336V81.176H226.867V78.616C226.867 71.4907 228.894 65.7733 232.947 61.464C237 57.112 242.44 54.936 249.267 54.936C253.832 54.936 257.779 55.9173 261.107 57.88C264.478 59.8427 267.08 62.616 268.915 66.2C270.75 69.7413 271.667 73.88 271.667 78.616V127H255.667V115.992L258.483 119.576C257.16 122.52 255.176 124.781 252.531 126.36C249.928 127.896 246.835 128.664 243.251 128.664ZM248.499 113.944C250.291 113.944 251.934 113.411 253.427 112.344C254.92 111.277 255.667 109.379 255.667 106.648V96.792C254.558 97.7733 253.192 98.5413 251.571 99.096C249.95 99.608 248.286 100.291 246.579 101.144C244.872 101.955 243.614 102.872 242.803 103.896C241.992 104.877 241.587 106.093 241.587 107.544C241.587 109.208 242.163 110.701 243.315 112.024C244.467 113.304 246.195 113.944 248.499 113.944ZM301.418 128.664C298.645 128.664 295.957 128.045 293.354 126.808C290.794 125.571 288.682 123.352 287.018 120.152C285.354 116.909 284.522 112.28 284.522 106.264V77.336C284.522 71.32 285.354 66.6907 287.018 63.448C288.682 60.2053 290.794 57.9867 293.354 56.792C295.957 55.5547 298.645 54.936 301.418 54.936C305.002 54.936 308.01 55.704 310.442 57.24C312.917 58.7333 314.815 60.8667 316.138 63.64L313.322 67.352V31H329.322V127H313.322V116.248L316.138 119.96C314.815 122.691 312.917 124.824 310.442 126.36C308.01 127.896 305.002 128.664 301.418 128.664ZM306.922 112.664C308.97 112.664 310.549 112.088 311.658 110.936C312.767 109.741 313.322 108.184 313.322 106.264V77.336C313.322 75.416 312.767 73.88 311.658 72.728C310.549 71.5333 308.97 70.936 306.922 70.936C304.874 70.936 303.295 71.5333 302.186 72.728C301.077 73.88 300.522 75.416 300.522 77.336V106.264C300.522 108.184 301.077 109.741 302.186 110.936C303.295 112.088 304.874 112.664 306.922 112.664ZM414.668 128.664C411.895 128.664 409.207 128.045 406.604 126.808C404.044 125.571 401.932 123.352 400.268 120.152C398.604 116.909 397.772 112.28 397.772 106.264V77.336C397.772 71.32 398.604 66.6907 400.268 63.448C401.932 60.2053 404.044 57.9867 406.604 56.792C409.207 55.5547 411.895 54.936 414.668 54.936C418.252 54.936 421.26 55.704 423.692 57.24C426.167 58.7333 428.065 60.8667 429.388 63.64L426.572 67.352V31H442.572V127H426.572V116.248L429.388 119.96C428.065 122.691 426.167 124.824 423.692 126.36C421.26 127.896 418.252 128.664 414.668 128.664ZM420.172 112.664C422.22 112.664 423.799 112.088 424.908 110.936C426.017 109.741 426.572 108.184 426.572 106.264V77.336C426.572 75.416 426.017 73.88 424.908 72.728C423.799 71.5333 422.22 70.936 420.172 70.936C418.124 70.936 416.545 71.5333 415.436 72.728C414.327 73.88 413.772 75.416 413.772 77.336V106.264C413.772 108.184 414.327 109.741 415.436 110.936C416.545 112.088 418.124 112.664 420.172 112.664ZM473.933 128.664C471.16 128.664 468.472 128.045 465.869 126.808C463.309 125.571 461.197 123.352 459.533 120.152C457.869 116.909 457.037 112.28 457.037 106.264V56.6H473.037V106.264C473.037 108.184 473.592 109.741 474.701 110.936C475.81 112.088 477.389 112.664 479.437 112.664C481.485 112.664 483.064 112.088 484.173 110.936C485.282 109.741 485.837 108.184 485.837 106.264V56.6H501.837V127H485.837V116.248L488.653 119.96C487.33 122.691 485.432 124.824 482.957 126.36C480.525 127.896 477.517 128.664 473.933 128.664ZM537.279 128.664C532.714 128.664 528.746 127.683 525.375 125.72C522.047 123.715 519.466 120.941 517.631 117.4C515.796 113.859 514.879 109.72 514.879 104.984V78.616C514.879 73.88 515.796 69.7413 517.631 66.2C519.466 62.616 522.047 59.8427 525.375 57.88C528.746 55.9173 532.714 54.936 537.279 54.936C544.148 54.936 549.588 57.112 553.599 61.464C557.652 65.7733 559.679 71.4907 559.679 78.616V79.896H543.679V77.336C543.679 75.416 543.124 73.88 542.015 72.728C540.906 71.5333 539.327 70.936 537.279 70.936C535.231 70.936 533.652 71.5333 532.543 72.728C531.434 73.88 530.879 75.416 530.879 77.336V106.264C530.879 108.184 531.434 109.741 532.543 110.936C533.652 112.088 535.231 112.664 537.279 112.664C539.327 112.664 540.906 112.088 542.015 110.936C543.124 109.741 543.679 108.184 543.679 106.264V103.704H559.679V104.984C559.679 112.067 557.652 117.784 553.599 122.136C549.588 126.488 544.148 128.664 537.279 128.664ZM584.501 128.664C578.741 128.664 574.346 126.872 571.317 123.288C568.33 119.661 566.837 115.075 566.837 109.528C566.837 106.328 567.306 103.619 568.245 101.4C569.184 99.1813 570.421 97.3253 571.957 95.832C573.536 94.296 575.285 92.9947 577.205 91.928C579.381 90.6907 581.621 89.6667 583.925 88.856C586.229 88.0027 588.362 87.1707 590.325 86.36C592.288 85.5067 593.866 84.4827 595.061 83.288C596.298 82.0933 596.917 80.536 596.917 78.616V77.336C596.917 75.416 596.362 73.88 595.253 72.728C594.144 71.5333 592.565 70.936 590.517 70.936C588.469 70.936 586.89 71.5333 585.781 72.728C584.672 73.88 584.117 75.416 584.117 77.336V81.176H568.117V78.616C568.117 71.4907 570.144 65.7733 574.197 61.464C578.25 57.112 583.69 54.936 590.517 54.936C595.082 54.936 599.029 55.9173 602.357 57.88C605.728 59.8427 608.33 62.616 610.165 66.2C612 69.7413 612.917 73.88 612.917 78.616V127H596.917V115.992L599.733 119.576C598.41 122.52 596.426 124.781 593.781 126.36C591.178 127.896 588.085 128.664 584.501 128.664ZM589.749 113.944C591.541 113.944 593.184 113.411 594.677 112.344C596.17 111.277 596.917 109.379 596.917 106.648V96.792C595.808 97.7733 594.442 98.5413 592.821 99.096C591.2 99.608 589.536 100.291 587.829 101.144C586.122 101.955 584.864 102.872 584.053 103.896C583.242 104.877 582.837 106.093 582.837 107.544C582.837 109.208 583.413 110.701 584.565 112.024C585.717 113.304 587.445 113.944 589.749 113.944Z" fill="white"/>
<path d="M55.0758 23.9999L91 65.2373H70.183L38.7791 28.7128H51.0314L19.1516 65.2373H7.62939e-06L36.0431 23.9999H55.0758Z" fill="#1A88FF"/>
<path d="M55.0758 54.9278L91 96.1652H70.183L38.7791 59.6407H51.0314L19.1516 96.1652H7.62939e-06L36.0431 54.9278H55.0758Z" fill="white"/>
<path d="M55.0758 85.8559L91 127.093H70.183L38.7791 90.5688H51.0314L19.1516 127.093H7.62939e-06L36.0431 85.8559H55.0758Z" fill="white"/>
</svg>
